<mxfile host="app.diagrams.net" modified="2023-08-05T10:55:42.287Z" agent="Mozilla/5.0 (Windows NT 10.0; Win64; x64) AppleWebKit/537.36 (KHTML, like Gecko) Chrome/115.0.0.0 Safari/537.36" etag="9ZnUGSu0Dp3wJgQW8Jca" version="21.6.6" type="github">
  <diagram id="C5RBs43oDa-KdzZeNtuy" name="Page-1">
    <mxGraphModel dx="2415" dy="912" grid="1" gridSize="10" guides="1" tooltips="1" connect="1" arrows="1" fold="1" page="1" pageScale="1" pageWidth="827" pageHeight="1169" math="0" shadow="0">
      <root>
        <mxCell id="WIyWlLk6GJQsqaUBKTNV-0" />
        <mxCell id="WIyWlLk6GJQsqaUBKTNV-1" parent="WIyWlLk6GJQsqaUBKTNV-0" />
        <mxCell id="wUK2hvCSEohS9CfLM4ct-101" value="" style="verticalLabelPosition=bottom;verticalAlign=top;html=1;shape=mxgraph.basic.rect;fillColor2=none;strokeWidth=1;size=20;indent=5;labelBackgroundColor=#481919;fillColor=#b0e3e6;strokeColor=#0e8088;sketch=1;curveFitting=1;jiggle=2;" vertex="1" parent="WIyWlLk6GJQsqaUBKTNV-1">
          <mxGeometry x="-50" width="900" height="950" as="geometry" />
        </mxCell>
        <mxCell id="wUK2hvCSEohS9CfLM4ct-8" value="" style="endArrow=classic;html=1;rounded=1;exitX=0.5;exitY=1;exitDx=0;exitDy=0;entryX=0.5;entryY=0;entryDx=0;entryDy=0;labelBackgroundColor=none;fontColor=default;sketch=1;curveFitting=1;jiggle=2;" edge="1" parent="WIyWlLk6GJQsqaUBKTNV-1" target="wUK2hvCSEohS9CfLM4ct-32">
          <mxGeometry width="50" height="50" relative="1" as="geometry">
            <mxPoint x="134.0000000000001" y="110" as="sourcePoint" />
            <mxPoint x="134.0000000000001" y="135" as="targetPoint" />
          </mxGeometry>
        </mxCell>
        <mxCell id="wUK2hvCSEohS9CfLM4ct-11" value="" style="endArrow=classic;html=1;rounded=1;exitX=1;exitY=0.5;exitDx=0;exitDy=0;entryX=0;entryY=0.5;entryDx=0;entryDy=0;exitPerimeter=0;labelBackgroundColor=none;fontColor=default;sketch=1;curveFitting=1;jiggle=2;" edge="1" parent="WIyWlLk6GJQsqaUBKTNV-1" source="wUK2hvCSEohS9CfLM4ct-35" target="wUK2hvCSEohS9CfLM4ct-40">
          <mxGeometry width="50" height="50" relative="1" as="geometry">
            <mxPoint x="157.12000000000012" y="575" as="sourcePoint" />
            <mxPoint x="204.61999999999978" y="575" as="targetPoint" />
          </mxGeometry>
        </mxCell>
        <mxCell id="wUK2hvCSEohS9CfLM4ct-27" value="NO" style="edgeLabel;html=1;align=center;verticalAlign=middle;resizable=0;points=[];rounded=1;labelBackgroundColor=none;sketch=1;curveFitting=1;jiggle=2;" vertex="1" connectable="0" parent="wUK2hvCSEohS9CfLM4ct-11">
          <mxGeometry x="0.3661" relative="1" as="geometry">
            <mxPoint x="-12" y="-10" as="offset" />
          </mxGeometry>
        </mxCell>
        <mxCell id="wUK2hvCSEohS9CfLM4ct-15" value="" style="endArrow=classic;html=1;rounded=1;exitX=0.5;exitY=1;exitDx=0;exitDy=0;exitPerimeter=0;entryX=0.5;entryY=0;entryDx=0;entryDy=0;labelBackgroundColor=none;fontColor=default;sketch=1;curveFitting=1;jiggle=2;" edge="1" parent="WIyWlLk6GJQsqaUBKTNV-1" source="wUK2hvCSEohS9CfLM4ct-35" target="wUK2hvCSEohS9CfLM4ct-41">
          <mxGeometry width="50" height="50" relative="1" as="geometry">
            <mxPoint x="117.12000000000012" y="615" as="sourcePoint" />
            <mxPoint x="117" y="650" as="targetPoint" />
          </mxGeometry>
        </mxCell>
        <mxCell id="wUK2hvCSEohS9CfLM4ct-22" value="YES" style="edgeLabel;html=1;align=center;verticalAlign=middle;resizable=0;points=[];rounded=1;labelBackgroundColor=none;sketch=1;curveFitting=1;jiggle=2;" vertex="1" connectable="0" parent="wUK2hvCSEohS9CfLM4ct-15">
          <mxGeometry x="-0.5111" y="-1" relative="1" as="geometry">
            <mxPoint x="-19" y="4" as="offset" />
          </mxGeometry>
        </mxCell>
        <mxCell id="wUK2hvCSEohS9CfLM4ct-29" value="START" style="strokeWidth=2;html=1;shape=mxgraph.flowchart.start_1;whiteSpace=wrap;rounded=1;labelBackgroundColor=none;sketch=1;curveFitting=1;jiggle=2;" vertex="1" parent="WIyWlLk6GJQsqaUBKTNV-1">
          <mxGeometry x="84" y="70" width="100" height="40" as="geometry" />
        </mxCell>
        <mxCell id="wUK2hvCSEohS9CfLM4ct-30" value="END" style="strokeWidth=2;html=1;shape=mxgraph.flowchart.terminator;whiteSpace=wrap;rounded=1;labelBackgroundColor=none;sketch=1;curveFitting=1;jiggle=2;" vertex="1" parent="WIyWlLk6GJQsqaUBKTNV-1">
          <mxGeometry x="83.99999999999999" y="868" width="100" height="40" as="geometry" />
        </mxCell>
        <mxCell id="wUK2hvCSEohS9CfLM4ct-32" value="User will access the site&lt;br style=&quot;border-color: var(--border-color);&quot;&gt;and input credentials" style="shape=parallelogram;html=1;strokeWidth=2;perimeter=parallelogramPerimeter;whiteSpace=wrap;rounded=1;arcSize=12;size=0.23;labelBackgroundColor=none;sketch=1;curveFitting=1;jiggle=2;" vertex="1" parent="WIyWlLk6GJQsqaUBKTNV-1">
          <mxGeometry x="24" y="135" width="220" height="50" as="geometry" />
        </mxCell>
        <mxCell id="wUK2hvCSEohS9CfLM4ct-34" value="The server will verify if the credential is valid and a unique token is generated" style="rounded=1;whiteSpace=wrap;html=1;absoluteArcSize=1;arcSize=14;strokeWidth=2;labelBackgroundColor=none;sketch=1;curveFitting=1;jiggle=2;" vertex="1" parent="WIyWlLk6GJQsqaUBKTNV-1">
          <mxGeometry x="45.25" y="360" width="177.5" height="65" as="geometry" />
        </mxCell>
        <mxCell id="wUK2hvCSEohS9CfLM4ct-35" value="Is the credential valid?" style="strokeWidth=2;html=1;shape=mxgraph.flowchart.decision;whiteSpace=wrap;rounded=1;labelBackgroundColor=none;sketch=1;curveFitting=1;jiggle=2;" vertex="1" parent="WIyWlLk6GJQsqaUBKTNV-1">
          <mxGeometry x="74" y="450" width="120" height="95" as="geometry" />
        </mxCell>
        <mxCell id="wUK2hvCSEohS9CfLM4ct-37" value="Is the token &lt;br&gt;equal to true?" style="strokeWidth=2;html=1;shape=mxgraph.flowchart.decision;whiteSpace=wrap;rounded=1;labelBackgroundColor=none;sketch=1;curveFitting=1;jiggle=2;" vertex="1" parent="WIyWlLk6GJQsqaUBKTNV-1">
          <mxGeometry x="69" y="663" width="130" height="100" as="geometry" />
        </mxCell>
        <mxCell id="wUK2hvCSEohS9CfLM4ct-38" value="Direct the user to homepage" style="rounded=1;whiteSpace=wrap;html=1;absoluteArcSize=1;arcSize=14;strokeWidth=2;labelBackgroundColor=none;sketch=1;curveFitting=1;jiggle=2;" vertex="1" parent="WIyWlLk6GJQsqaUBKTNV-1">
          <mxGeometry x="44.629999999999995" y="794" width="178.75" height="48" as="geometry" />
        </mxCell>
        <mxCell id="wUK2hvCSEohS9CfLM4ct-39" value="Add 1 to the count of invalid attempts and store the count to the database" style="rounded=1;whiteSpace=wrap;html=1;absoluteArcSize=1;arcSize=14;strokeWidth=2;labelBackgroundColor=none;sketch=1;curveFitting=1;jiggle=2;" vertex="1" parent="WIyWlLk6GJQsqaUBKTNV-1">
          <mxGeometry x="235" y="678" width="182.25" height="70" as="geometry" />
        </mxCell>
        <mxCell id="wUK2hvCSEohS9CfLM4ct-40" value="Set the token to false" style="rounded=1;whiteSpace=wrap;html=1;absoluteArcSize=1;arcSize=14;strokeWidth=2;labelBackgroundColor=none;sketch=1;curveFitting=1;jiggle=2;" vertex="1" parent="WIyWlLk6GJQsqaUBKTNV-1">
          <mxGeometry x="239" y="472.5" width="130" height="50" as="geometry" />
        </mxCell>
        <mxCell id="wUK2hvCSEohS9CfLM4ct-41" value="Set the token to true" style="rounded=1;whiteSpace=wrap;html=1;absoluteArcSize=1;arcSize=14;strokeWidth=2;labelBackgroundColor=none;sketch=1;curveFitting=1;jiggle=2;" vertex="1" parent="WIyWlLk6GJQsqaUBKTNV-1">
          <mxGeometry x="69" y="575" width="130" height="50" as="geometry" />
        </mxCell>
        <mxCell id="wUK2hvCSEohS9CfLM4ct-42" value="Is the count of invalid attempts equal to 5?" style="strokeWidth=2;html=1;shape=mxgraph.flowchart.decision;whiteSpace=wrap;rounded=1;labelBackgroundColor=none;sketch=1;curveFitting=1;jiggle=2;" vertex="1" parent="WIyWlLk6GJQsqaUBKTNV-1">
          <mxGeometry x="453.25" y="658" width="160" height="110" as="geometry" />
        </mxCell>
        <mxCell id="wUK2hvCSEohS9CfLM4ct-43" value="Block user and save the date and time of attempt log-in" style="rounded=1;whiteSpace=wrap;html=1;absoluteArcSize=1;arcSize=14;strokeWidth=2;labelBackgroundColor=none;sketch=1;curveFitting=1;jiggle=2;" vertex="1" parent="WIyWlLk6GJQsqaUBKTNV-1">
          <mxGeometry x="445.12" y="810" width="176.25" height="56" as="geometry" />
        </mxCell>
        <mxCell id="wUK2hvCSEohS9CfLM4ct-46" value="In the database, does the &lt;br&gt;user have 5 counts of &lt;br&gt;invalid attempts?" style="strokeWidth=2;html=1;shape=mxgraph.flowchart.decision;whiteSpace=wrap;rounded=1;labelBackgroundColor=none;sketch=1;curveFitting=1;jiggle=2;" vertex="1" parent="WIyWlLk6GJQsqaUBKTNV-1">
          <mxGeometry x="29" y="210" width="210" height="120" as="geometry" />
        </mxCell>
        <mxCell id="wUK2hvCSEohS9CfLM4ct-49" value="Has it already been 15 minutes &lt;br&gt;since user&#39;s last attempt log-in?" style="strokeWidth=2;html=1;shape=mxgraph.flowchart.decision;whiteSpace=wrap;rounded=1;labelBackgroundColor=none;sketch=1;curveFitting=1;jiggle=2;" vertex="1" parent="WIyWlLk6GJQsqaUBKTNV-1">
          <mxGeometry x="279" y="206.5" width="220" height="127" as="geometry" />
        </mxCell>
        <mxCell id="wUK2hvCSEohS9CfLM4ct-50" value="" style="endArrow=classic;html=1;rounded=1;exitX=0.5;exitY=1;exitDx=0;exitDy=0;entryX=0.5;entryY=0;entryDx=0;entryDy=0;entryPerimeter=0;labelBackgroundColor=none;fontColor=default;sketch=1;curveFitting=1;jiggle=2;" edge="1" parent="WIyWlLk6GJQsqaUBKTNV-1" source="wUK2hvCSEohS9CfLM4ct-32" target="wUK2hvCSEohS9CfLM4ct-46">
          <mxGeometry width="50" height="50" relative="1" as="geometry">
            <mxPoint x="174" y="210" as="sourcePoint" />
            <mxPoint x="224" y="160" as="targetPoint" />
          </mxGeometry>
        </mxCell>
        <mxCell id="wUK2hvCSEohS9CfLM4ct-51" value="" style="endArrow=classic;html=1;rounded=1;exitX=1;exitY=0.5;exitDx=0;exitDy=0;exitPerimeter=0;entryX=0;entryY=0.5;entryDx=0;entryDy=0;entryPerimeter=0;labelBackgroundColor=none;fontColor=default;sketch=1;curveFitting=1;jiggle=2;" edge="1" parent="WIyWlLk6GJQsqaUBKTNV-1" source="wUK2hvCSEohS9CfLM4ct-46" target="wUK2hvCSEohS9CfLM4ct-49">
          <mxGeometry width="50" height="50" relative="1" as="geometry">
            <mxPoint x="184" y="270" as="sourcePoint" />
            <mxPoint x="269" y="270" as="targetPoint" />
          </mxGeometry>
        </mxCell>
        <mxCell id="wUK2hvCSEohS9CfLM4ct-52" value="YES" style="edgeLabel;html=1;align=center;verticalAlign=middle;resizable=0;points=[];rounded=1;labelBackgroundColor=none;sketch=1;curveFitting=1;jiggle=2;" vertex="1" connectable="0" parent="wUK2hvCSEohS9CfLM4ct-51">
          <mxGeometry x="0.5222" relative="1" as="geometry">
            <mxPoint x="-15" y="-10" as="offset" />
          </mxGeometry>
        </mxCell>
        <mxCell id="wUK2hvCSEohS9CfLM4ct-53" value="" style="endArrow=classic;html=1;rounded=1;exitX=0.5;exitY=1;exitDx=0;exitDy=0;exitPerimeter=0;entryX=0.5;entryY=0;entryDx=0;entryDy=0;labelBackgroundColor=none;fontColor=default;sketch=1;curveFitting=1;jiggle=2;" edge="1" parent="WIyWlLk6GJQsqaUBKTNV-1" source="wUK2hvCSEohS9CfLM4ct-46" target="wUK2hvCSEohS9CfLM4ct-34">
          <mxGeometry width="50" height="50" relative="1" as="geometry">
            <mxPoint x="244" y="400" as="sourcePoint" />
            <mxPoint x="294" y="350" as="targetPoint" />
          </mxGeometry>
        </mxCell>
        <mxCell id="wUK2hvCSEohS9CfLM4ct-55" value="NO" style="edgeLabel;html=1;align=center;verticalAlign=middle;resizable=0;points=[];rounded=1;labelBackgroundColor=none;sketch=1;curveFitting=1;jiggle=2;" vertex="1" connectable="0" parent="wUK2hvCSEohS9CfLM4ct-53">
          <mxGeometry x="0.3067" y="-1" relative="1" as="geometry">
            <mxPoint x="14" y="-9" as="offset" />
          </mxGeometry>
        </mxCell>
        <mxCell id="wUK2hvCSEohS9CfLM4ct-62" value="Show a notification message to user to try again 15 minutes after their last attempt log-in" style="rounded=1;whiteSpace=wrap;html=1;absoluteArcSize=1;arcSize=14;strokeWidth=2;labelBackgroundColor=none;sketch=1;curveFitting=1;jiggle=2;" vertex="1" parent="WIyWlLk6GJQsqaUBKTNV-1">
          <mxGeometry x="553" y="237.5" width="221.87" height="65" as="geometry" />
        </mxCell>
        <mxCell id="wUK2hvCSEohS9CfLM4ct-63" value="" style="endArrow=classic;html=1;rounded=1;exitX=1;exitY=0.5;exitDx=0;exitDy=0;exitPerimeter=0;entryX=0;entryY=0.5;entryDx=0;entryDy=0;labelBackgroundColor=none;fontColor=default;sketch=1;curveFitting=1;jiggle=2;" edge="1" parent="WIyWlLk6GJQsqaUBKTNV-1" source="wUK2hvCSEohS9CfLM4ct-49" target="wUK2hvCSEohS9CfLM4ct-62">
          <mxGeometry width="50" height="50" relative="1" as="geometry">
            <mxPoint x="314" y="370" as="sourcePoint" />
            <mxPoint x="364" y="320" as="targetPoint" />
          </mxGeometry>
        </mxCell>
        <mxCell id="wUK2hvCSEohS9CfLM4ct-64" value="NO" style="edgeLabel;html=1;align=center;verticalAlign=middle;resizable=0;points=[];rounded=1;labelBackgroundColor=none;sketch=1;curveFitting=1;jiggle=2;" vertex="1" connectable="0" parent="WIyWlLk6GJQsqaUBKTNV-1">
          <mxGeometry x="163" y="349" as="geometry">
            <mxPoint x="351" y="-88" as="offset" />
          </mxGeometry>
        </mxCell>
        <mxCell id="wUK2hvCSEohS9CfLM4ct-67" value="" style="endArrow=classic;html=1;rounded=1;exitX=0.5;exitY=1;exitDx=0;exitDy=0;labelBackgroundColor=none;fontColor=default;sketch=1;curveFitting=1;jiggle=2;" edge="1" parent="WIyWlLk6GJQsqaUBKTNV-1" source="wUK2hvCSEohS9CfLM4ct-34" target="wUK2hvCSEohS9CfLM4ct-35">
          <mxGeometry width="50" height="50" relative="1" as="geometry">
            <mxPoint x="326" y="590" as="sourcePoint" />
            <mxPoint x="376" y="540" as="targetPoint" />
          </mxGeometry>
        </mxCell>
        <mxCell id="wUK2hvCSEohS9CfLM4ct-70" value="" style="endArrow=classic;html=1;rounded=1;exitX=0.5;exitY=1;exitDx=0;exitDy=0;entryX=0.5;entryY=0;entryDx=0;entryDy=0;entryPerimeter=0;labelBackgroundColor=none;fontColor=default;sketch=1;curveFitting=1;jiggle=2;" edge="1" parent="WIyWlLk6GJQsqaUBKTNV-1" source="wUK2hvCSEohS9CfLM4ct-41" target="wUK2hvCSEohS9CfLM4ct-37">
          <mxGeometry width="50" height="50" relative="1" as="geometry">
            <mxPoint x="172.51" y="650" as="sourcePoint" />
            <mxPoint x="172.51" y="680" as="targetPoint" />
          </mxGeometry>
        </mxCell>
        <mxCell id="wUK2hvCSEohS9CfLM4ct-71" value="YES" style="edgeLabel;html=1;align=center;verticalAlign=middle;resizable=0;points=[];rounded=1;labelBackgroundColor=none;sketch=1;curveFitting=1;jiggle=2;" vertex="1" connectable="0" parent="wUK2hvCSEohS9CfLM4ct-70">
          <mxGeometry x="-0.5111" y="-1" relative="1" as="geometry">
            <mxPoint x="-19" y="4" as="offset" />
          </mxGeometry>
        </mxCell>
        <mxCell id="wUK2hvCSEohS9CfLM4ct-75" value="" style="endArrow=classic;html=1;rounded=1;exitX=0.5;exitY=1;exitDx=0;exitDy=0;entryX=0.5;entryY=0;entryDx=0;entryDy=0;entryPerimeter=0;labelBackgroundColor=none;fontColor=default;sketch=1;curveFitting=1;jiggle=2;" edge="1" parent="WIyWlLk6GJQsqaUBKTNV-1" source="wUK2hvCSEohS9CfLM4ct-40" target="wUK2hvCSEohS9CfLM4ct-37">
          <mxGeometry width="50" height="50" relative="1" as="geometry">
            <mxPoint x="126" y="710" as="sourcePoint" />
            <mxPoint x="156" y="650" as="targetPoint" />
            <Array as="points">
              <mxPoint x="304" y="663" />
            </Array>
          </mxGeometry>
        </mxCell>
        <mxCell id="wUK2hvCSEohS9CfLM4ct-76" value="" style="endArrow=classic;html=1;rounded=1;exitX=0.5;exitY=1;exitDx=0;exitDy=0;exitPerimeter=0;entryX=0.5;entryY=0;entryDx=0;entryDy=0;labelBackgroundColor=none;fontColor=default;sketch=1;curveFitting=1;jiggle=2;" edge="1" parent="WIyWlLk6GJQsqaUBKTNV-1" source="wUK2hvCSEohS9CfLM4ct-37" target="wUK2hvCSEohS9CfLM4ct-38">
          <mxGeometry width="50" height="50" relative="1" as="geometry">
            <mxPoint x="356" y="790" as="sourcePoint" />
            <mxPoint x="406" y="740" as="targetPoint" />
          </mxGeometry>
        </mxCell>
        <mxCell id="wUK2hvCSEohS9CfLM4ct-81" value="YES" style="edgeLabel;html=1;align=center;verticalAlign=middle;resizable=0;points=[];rounded=1;labelBackgroundColor=none;sketch=1;curveFitting=1;jiggle=2;" vertex="1" connectable="0" parent="wUK2hvCSEohS9CfLM4ct-76">
          <mxGeometry x="-0.3764" y="-1" relative="1" as="geometry">
            <mxPoint x="-17" as="offset" />
          </mxGeometry>
        </mxCell>
        <mxCell id="wUK2hvCSEohS9CfLM4ct-78" value="" style="endArrow=classic;html=1;rounded=1;exitX=0.5;exitY=1;exitDx=0;exitDy=0;entryX=0.5;entryY=0;entryDx=0;entryDy=0;entryPerimeter=0;labelBackgroundColor=none;fontColor=default;sketch=1;curveFitting=1;jiggle=2;" edge="1" parent="WIyWlLk6GJQsqaUBKTNV-1" source="wUK2hvCSEohS9CfLM4ct-38" target="wUK2hvCSEohS9CfLM4ct-30">
          <mxGeometry width="50" height="50" relative="1" as="geometry">
            <mxPoint x="163" y="868" as="sourcePoint" />
            <mxPoint x="213" y="818" as="targetPoint" />
          </mxGeometry>
        </mxCell>
        <mxCell id="wUK2hvCSEohS9CfLM4ct-79" value="" style="endArrow=classic;html=1;rounded=1;exitX=1;exitY=0.5;exitDx=0;exitDy=0;exitPerimeter=0;entryX=0;entryY=0.5;entryDx=0;entryDy=0;labelBackgroundColor=none;fontColor=default;sketch=1;curveFitting=1;jiggle=2;" edge="1" parent="WIyWlLk6GJQsqaUBKTNV-1" source="wUK2hvCSEohS9CfLM4ct-37" target="wUK2hvCSEohS9CfLM4ct-39">
          <mxGeometry width="50" height="50" relative="1" as="geometry">
            <mxPoint x="326" y="750" as="sourcePoint" />
            <mxPoint x="376" y="700" as="targetPoint" />
          </mxGeometry>
        </mxCell>
        <mxCell id="wUK2hvCSEohS9CfLM4ct-80" value="NO" style="edgeLabel;html=1;align=center;verticalAlign=middle;resizable=0;points=[];rounded=1;labelBackgroundColor=none;sketch=1;curveFitting=1;jiggle=2;" vertex="1" connectable="0" parent="wUK2hvCSEohS9CfLM4ct-79">
          <mxGeometry x="0.6796" relative="1" as="geometry">
            <mxPoint x="-16" y="-9" as="offset" />
          </mxGeometry>
        </mxCell>
        <mxCell id="wUK2hvCSEohS9CfLM4ct-82" value="" style="endArrow=classic;html=1;rounded=1;exitX=1;exitY=0.5;exitDx=0;exitDy=0;entryX=0;entryY=0.5;entryDx=0;entryDy=0;entryPerimeter=0;labelBackgroundColor=none;fontColor=default;sketch=1;curveFitting=1;jiggle=2;" edge="1" parent="WIyWlLk6GJQsqaUBKTNV-1" source="wUK2hvCSEohS9CfLM4ct-39" target="wUK2hvCSEohS9CfLM4ct-42">
          <mxGeometry width="50" height="50" relative="1" as="geometry">
            <mxPoint x="246" y="820" as="sourcePoint" />
            <mxPoint x="296" y="770" as="targetPoint" />
          </mxGeometry>
        </mxCell>
        <mxCell id="wUK2hvCSEohS9CfLM4ct-83" value="" style="endArrow=classic;html=1;rounded=1;exitX=0.5;exitY=1;exitDx=0;exitDy=0;exitPerimeter=0;entryX=0.5;entryY=0;entryDx=0;entryDy=0;labelBackgroundColor=none;fontColor=default;sketch=1;curveFitting=1;jiggle=2;" edge="1" parent="WIyWlLk6GJQsqaUBKTNV-1" source="wUK2hvCSEohS9CfLM4ct-42" target="wUK2hvCSEohS9CfLM4ct-43">
          <mxGeometry width="50" height="50" relative="1" as="geometry">
            <mxPoint x="306" y="870" as="sourcePoint" />
            <mxPoint x="356" y="820" as="targetPoint" />
          </mxGeometry>
        </mxCell>
        <mxCell id="wUK2hvCSEohS9CfLM4ct-84" value="YES" style="edgeLabel;html=1;align=center;verticalAlign=middle;resizable=0;points=[];rounded=1;labelBackgroundColor=none;sketch=1;curveFitting=1;jiggle=2;" vertex="1" connectable="0" parent="wUK2hvCSEohS9CfLM4ct-83">
          <mxGeometry x="-0.2055" relative="1" as="geometry">
            <mxPoint x="-19" y="-1" as="offset" />
          </mxGeometry>
        </mxCell>
        <mxCell id="wUK2hvCSEohS9CfLM4ct-85" value="" style="endArrow=classic;html=1;rounded=1;exitX=0.5;exitY=1;exitDx=0;exitDy=0;entryX=1;entryY=0.5;entryDx=0;entryDy=0;entryPerimeter=0;labelBackgroundColor=none;fontColor=default;sketch=1;curveFitting=1;jiggle=2;" edge="1" parent="WIyWlLk6GJQsqaUBKTNV-1" source="wUK2hvCSEohS9CfLM4ct-43" target="wUK2hvCSEohS9CfLM4ct-30">
          <mxGeometry width="50" height="50" relative="1" as="geometry">
            <mxPoint x="306" y="790" as="sourcePoint" />
            <mxPoint x="356" y="740" as="targetPoint" />
            <Array as="points">
              <mxPoint x="533" y="890" />
            </Array>
          </mxGeometry>
        </mxCell>
        <mxCell id="wUK2hvCSEohS9CfLM4ct-86" value="" style="endArrow=classic;html=1;rounded=1;exitX=0.5;exitY=1;exitDx=0;exitDy=0;labelBackgroundColor=none;fontColor=default;sketch=1;curveFitting=1;jiggle=2;" edge="1" parent="WIyWlLk6GJQsqaUBKTNV-1" source="wUK2hvCSEohS9CfLM4ct-62">
          <mxGeometry width="50" height="50" relative="1" as="geometry">
            <mxPoint x="646.935" y="302.5" as="sourcePoint" />
            <mxPoint x="526" y="890" as="targetPoint" />
            <Array as="points">
              <mxPoint x="666" y="890" />
            </Array>
          </mxGeometry>
        </mxCell>
        <mxCell id="wUK2hvCSEohS9CfLM4ct-87" value="Show a notification message to user that the credentials are invalid." style="rounded=1;whiteSpace=wrap;html=1;absoluteArcSize=1;arcSize=14;strokeWidth=2;labelBackgroundColor=none;sketch=1;curveFitting=1;jiggle=2;" vertex="1" parent="WIyWlLk6GJQsqaUBKTNV-1">
          <mxGeometry x="428.25" y="519" width="210" height="65" as="geometry" />
        </mxCell>
        <mxCell id="wUK2hvCSEohS9CfLM4ct-91" style="edgeStyle=orthogonalEdgeStyle;rounded=1;orthogonalLoop=1;jettySize=auto;html=1;exitX=0.5;exitY=1;exitDx=0;exitDy=0;labelBackgroundColor=none;fontColor=default;sketch=1;curveFitting=1;jiggle=2;" edge="1" parent="WIyWlLk6GJQsqaUBKTNV-1" source="wUK2hvCSEohS9CfLM4ct-87" target="wUK2hvCSEohS9CfLM4ct-87">
          <mxGeometry relative="1" as="geometry" />
        </mxCell>
        <mxCell id="wUK2hvCSEohS9CfLM4ct-93" value="" style="endArrow=classic;html=1;rounded=1;exitX=1;exitY=0.5;exitDx=0;exitDy=0;exitPerimeter=0;entryX=0.5;entryY=1;entryDx=0;entryDy=0;labelBackgroundColor=none;fontColor=default;sketch=1;curveFitting=1;jiggle=2;" edge="1" parent="WIyWlLk6GJQsqaUBKTNV-1" source="wUK2hvCSEohS9CfLM4ct-42" target="wUK2hvCSEohS9CfLM4ct-87">
          <mxGeometry width="50" height="50" relative="1" as="geometry">
            <mxPoint x="456" y="520" as="sourcePoint" />
            <mxPoint x="506" y="470" as="targetPoint" />
            <Array as="points">
              <mxPoint x="646" y="713" />
              <mxPoint x="646" y="640" />
              <mxPoint x="533" y="640" />
            </Array>
          </mxGeometry>
        </mxCell>
        <mxCell id="wUK2hvCSEohS9CfLM4ct-95" value="NO" style="edgeLabel;html=1;align=center;verticalAlign=middle;resizable=0;points=[];rounded=1;labelBackgroundColor=none;sketch=1;curveFitting=1;jiggle=2;" vertex="1" connectable="0" parent="wUK2hvCSEohS9CfLM4ct-93">
          <mxGeometry x="-0.2044" y="2" relative="1" as="geometry">
            <mxPoint x="-13" y="60" as="offset" />
          </mxGeometry>
        </mxCell>
        <mxCell id="wUK2hvCSEohS9CfLM4ct-94" value="" style="endArrow=classic;html=1;rounded=1;exitX=1;exitY=0.5;exitDx=0;exitDy=0;labelBackgroundColor=none;fontColor=default;sketch=1;curveFitting=1;jiggle=2;" edge="1" parent="WIyWlLk6GJQsqaUBKTNV-1" source="wUK2hvCSEohS9CfLM4ct-87">
          <mxGeometry width="50" height="50" relative="1" as="geometry">
            <mxPoint x="456" y="520" as="sourcePoint" />
            <mxPoint x="666" y="552" as="targetPoint" />
          </mxGeometry>
        </mxCell>
        <mxCell id="wUK2hvCSEohS9CfLM4ct-96" value="Unblock the user" style="rounded=1;whiteSpace=wrap;html=1;absoluteArcSize=1;arcSize=14;strokeWidth=2;labelBackgroundColor=none;sketch=1;curveFitting=1;jiggle=2;" vertex="1" parent="WIyWlLk6GJQsqaUBKTNV-1">
          <mxGeometry x="329" y="367.5" width="120" height="50" as="geometry" />
        </mxCell>
        <mxCell id="wUK2hvCSEohS9CfLM4ct-98" value="" style="endArrow=classic;html=1;rounded=1;exitX=0.5;exitY=1;exitDx=0;exitDy=0;exitPerimeter=0;entryX=0.5;entryY=0;entryDx=0;entryDy=0;labelBackgroundColor=none;fontColor=default;sketch=1;curveFitting=1;jiggle=2;" edge="1" parent="WIyWlLk6GJQsqaUBKTNV-1" source="wUK2hvCSEohS9CfLM4ct-49" target="wUK2hvCSEohS9CfLM4ct-96">
          <mxGeometry width="50" height="50" relative="1" as="geometry">
            <mxPoint x="436" y="530" as="sourcePoint" />
            <mxPoint x="486" y="480" as="targetPoint" />
          </mxGeometry>
        </mxCell>
        <mxCell id="wUK2hvCSEohS9CfLM4ct-99" value="YES" style="edgeLabel;html=1;align=center;verticalAlign=middle;resizable=0;points=[];rounded=1;labelBackgroundColor=none;sketch=1;curveFitting=1;jiggle=2;" vertex="1" connectable="0" parent="wUK2hvCSEohS9CfLM4ct-98">
          <mxGeometry x="-0.4516" relative="1" as="geometry">
            <mxPoint x="-17" y="4" as="offset" />
          </mxGeometry>
        </mxCell>
        <mxCell id="wUK2hvCSEohS9CfLM4ct-100" value="" style="endArrow=classic;html=1;rounded=1;exitX=0;exitY=0.5;exitDx=0;exitDy=0;entryX=1;entryY=0.5;entryDx=0;entryDy=0;labelBackgroundColor=none;fontColor=default;sketch=1;curveFitting=1;jiggle=2;" edge="1" parent="WIyWlLk6GJQsqaUBKTNV-1" source="wUK2hvCSEohS9CfLM4ct-96" target="wUK2hvCSEohS9CfLM4ct-34">
          <mxGeometry width="50" height="50" relative="1" as="geometry">
            <mxPoint x="436" y="530" as="sourcePoint" />
            <mxPoint x="486" y="480" as="targetPoint" />
          </mxGeometry>
        </mxCell>
        <mxCell id="wUK2hvCSEohS9CfLM4ct-102" value="FLOWCHART FOR LOGGING IN TO A WEBSITE" style="text;html=1;strokeColor=none;fillColor=none;align=left;verticalAlign=middle;whiteSpace=wrap;rounded=0;fontStyle=1;sketch=1;curveFitting=1;jiggle=2;" vertex="1" parent="WIyWlLk6GJQsqaUBKTNV-1">
          <mxGeometry x="-27.880000000000003" y="20" width="284.88" height="30" as="geometry" />
        </mxCell>
        <mxCell id="wUK2hvCSEohS9CfLM4ct-104" value="By: Chrise Anne Mae Ocampo" style="text;html=1;strokeColor=none;fillColor=none;align=right;verticalAlign=middle;whiteSpace=wrap;rounded=0;fontStyle=1;sketch=1;curveFitting=1;jiggle=2;" vertex="1" parent="WIyWlLk6GJQsqaUBKTNV-1">
          <mxGeometry x="551" y="20" width="284.88" height="30" as="geometry" />
        </mxCell>
      </root>
    </mxGraphModel>
  </diagram>
</mxfile>
